<svg xmlns="http://www.w3.org/2000/svg" xmlns:xlink="http://www.w3.org/1999/xlink" width="500" zoomAndPan="magnify" viewBox="0 0 375 374.999991" height="500" preserveAspectRatio="xMidYMid meet" version="1.0"><defs><filter x="0%" y="0%" width="100%" height="100%" id="77c8f43632"><feColorMatrix values="0 0 0 0 1 0 0 0 0 1 0 0 0 0 1 0 0 0 1 0" color-interpolation-filters="sRGB"/></filter><g/><mask id="d23151cd5a"><g filter="url(#77c8f43632)"><rect x="-37.5" width="450" fill="#000000" y="-37.499999" height="449.999989" fill-opacity="0.89"/></g></mask><clipPath id="c103e5db26"><rect x="0" width="350" y="0" height="156"/></clipPath></defs><rect x="-37.5" width="450" fill="#ffffff" y="-37.499999" height="449.999989" fill-opacity="1"/><rect x="-37.5" width="450" fill="#ffffff" y="-37.499999" height="449.999989" fill-opacity="1"/><g mask="url(#d23151cd5a)"><g transform="matrix(1, 0, 0, 1, 22, 109)"><g clip-path="url(#c103e5db26)"><g fill="#000000" fill-opacity="1"><g transform="translate(12.470399, 107.027168)"><g><path d="M 62.65625 -41 C 63.582031 -41.363281 64.640625 -41.65625 65.828125 -41.875 C 67.023438 -42.101562 68.628906 -42.21875 70.640625 -42.21875 C 72.660156 -42.21875 74.757812 -41.675781 76.9375 -40.59375 C 86.09375 -45.0625 92.34375 -51.570312 95.6875 -60.125 C 96.894531 -63.144531 97.5 -66.207031 97.5 -69.3125 C 97.5 -72.414062 96.65625 -75.054688 94.96875 -77.234375 C 94.039062 -76.710938 93.113281 -76.128906 92.1875 -75.484375 L 89.28125 -73.4375 C 84.03125 -69.476562 79.59375 -65.566406 75.96875 -61.703125 C 69.84375 -55.203125 63.34375 -47.320312 56.46875 -38.0625 C 49.59375 -28.8125 42.59375 -21.140625 35.46875 -15.046875 C 28.351562 -8.960938 21.570312 -4.59375 15.125 -1.9375 C 11.613281 -0.5625 7.175781 0.125 1.8125 0.125 C -1.695312 0.125 -4.722656 -0.722656 -7.265625 -2.421875 C -9.765625 -4.109375 -11.015625 -6.164062 -11.015625 -8.59375 C -11.015625 -11.132812 -9.765625 -12.742188 -7.265625 -13.421875 C -6.617188 -13.585938 -5.972656 -13.671875 -5.328125 -13.671875 C -4.679688 -13.671875 -4.023438 -13.457031 -3.359375 -13.03125 C -2.691406 -12.613281 -2.359375 -11.945312 -2.359375 -11.03125 C -2.359375 -10.125 -2.691406 -9.378906 -3.359375 -8.796875 C -4.023438 -8.210938 -4.929688 -7.921875 -6.078125 -7.921875 C -7.222656 -7.921875 -8.082031 -8.125 -8.65625 -8.53125 L -8.65625 -8.171875 C -8.65625 -6.191406 -7.675781 -4.578125 -5.71875 -3.328125 C -3.757812 -2.078125 -1.507812 -1.453125 1.03125 -1.453125 C 3.570312 -1.453125 5.640625 -1.640625 7.234375 -2.015625 C 8.828125 -2.398438 10.566406 -3.132812 12.453125 -4.21875 C 14.347656 -5.3125 16.472656 -6.847656 18.828125 -8.828125 C 21.191406 -10.804688 23.988281 -13.390625 27.21875 -16.578125 L 38.40625 -28.3125 L 53.34375 -44.640625 C 67.5 -60.691406 80.925781 -72.082031 93.625 -78.8125 C 88.988281 -83.445312 81.328125 -85.765625 70.640625 -85.765625 C 58.179688 -85.765625 45.882812 -81.1875 33.75 -72.03125 C 27.90625 -67.601562 23.066406 -62.910156 19.234375 -57.953125 C 15.359375 -52.828125 13.421875 -48.390625 13.421875 -44.640625 C 13.421875 -41.210938 15.117188 -39.015625 18.515625 -38.046875 C 19.472656 -37.765625 20.816406 -37.625 22.546875 -37.625 C 24.285156 -37.625 26.492188 -38.085938 29.171875 -39.015625 C 31.859375 -39.941406 34.5625 -41.25 37.28125 -42.9375 C 40.007812 -44.632812 42.660156 -46.660156 45.234375 -49.015625 C 47.816406 -51.378906 50.160156 -53.992188 52.265625 -56.859375 C 56.898438 -63.023438 59.679688 -69.476562 60.609375 -76.21875 C 60.847656 -77.5 61.160156 -78.140625 61.546875 -78.140625 C 61.929688 -78.140625 62.125 -77.695312 62.125 -76.8125 C 62.125 -69.394531 59.984375 -62.421875 55.703125 -55.890625 C 51.835938 -50.003906 46.65625 -45.242188 40.15625 -41.609375 C 33.832031 -38.066406 27.484375 -36.296875 21.109375 -36.296875 C 16.910156 -36.296875 14.023438 -37.867188 12.453125 -41.015625 C 11.890625 -42.054688 11.609375 -43.765625 11.609375 -46.140625 C 11.609375 -48.523438 12.394531 -51.398438 13.96875 -54.765625 C 15.539062 -58.140625 17.707031 -61.390625 20.46875 -64.515625 C 23.238281 -67.640625 26.515625 -70.570312 30.296875 -73.3125 C 34.085938 -76.050781 38.179688 -78.445312 42.578125 -80.5 C 52.054688 -84.894531 61.9375 -87.09375 72.21875 -87.09375 C 82.5 -87.09375 90.601562 -84.835938 96.53125 -80.328125 C 102.582031 -83.234375 107.625 -84.6875 111.65625 -84.6875 C 112.988281 -84.6875 113.65625 -84.484375 113.65625 -84.078125 C 113.65625 -83.867188 113.289062 -83.710938 112.5625 -83.609375 C 111.832031 -83.515625 110.785156 -83.304688 109.421875 -82.984375 C 105.429688 -82.140625 101.660156 -80.789062 98.109375 -78.9375 C 101.898438 -75.300781 103.796875 -70.820312 103.796875 -65.5 C 103.796875 -60.34375 101.375 -55.164062 96.53125 -49.96875 C 92.0625 -45.164062 86.5 -41.414062 79.84375 -38.71875 C 83.070312 -35.851562 84.6875 -31.796875 84.6875 -26.546875 C 84.6875 -22.078125 83.007812 -17.742188 79.65625 -13.546875 C 74.65625 -7.253906 67.78125 -3.039062 59.03125 -0.90625 C 56.207031 -0.21875 53.585938 0.125 51.171875 0.125 C 48.753906 0.125 46.898438 -0.0859375 45.609375 -0.515625 C 44.316406 -0.941406 43.285156 -1.472656 42.515625 -2.109375 C 41.109375 -3.285156 40.40625 -4.671875 40.40625 -6.265625 C 40.40625 -7.859375 40.828125 -9.46875 41.671875 -11.09375 C 42.515625 -12.726562 43.671875 -14.351562 45.140625 -15.96875 C 46.617188 -17.582031 48.363281 -19.132812 50.375 -20.625 C 52.394531 -22.113281 54.554688 -23.425781 56.859375 -24.5625 C 61.972656 -27.101562 66.929688 -28.375 71.734375 -28.375 C 72.578125 -28.375 73 -28.109375 73 -27.578125 C 73 -27.054688 72.160156 -26.796875 70.484375 -26.796875 C 68.816406 -26.796875 66.863281 -26.492188 64.625 -25.890625 C 62.382812 -25.285156 60.195312 -24.457031 58.0625 -23.40625 C 55.925781 -22.351562 53.910156 -21.140625 52.015625 -19.765625 C 50.117188 -18.398438 48.46875 -16.972656 47.0625 -15.484375 C 43.957031 -12.253906 42.40625 -9.269531 42.40625 -6.53125 C 42.40625 -3.226562 45.164062 -1.578125 50.6875 -1.578125 C 54.5625 -1.578125 58.632812 -3.023438 62.90625 -5.921875 C 69.757812 -10.523438 74.4375 -16.9375 76.9375 -25.15625 C 77.738281 -27.90625 78.140625 -30.4375 78.140625 -32.75 C 78.140625 -35.070312 77.835938 -36.71875 77.234375 -37.6875 C 73.085938 -36.269531 69.59375 -35.5625 66.75 -35.5625 C 63.90625 -35.5625 62.007812 -35.863281 61.0625 -36.46875 C 60.113281 -37.070312 59.640625 -37.65625 59.640625 -38.21875 C 59.640625 -38.789062 59.910156 -39.304688 60.453125 -39.765625 C 60.992188 -40.234375 61.726562 -40.644531 62.65625 -41 Z M 75.0625 -39.734375 C 73.8125 -40.460938 72.347656 -40.828125 70.671875 -40.828125 C 69.003906 -40.828125 67.753906 -40.765625 66.921875 -40.640625 C 66.097656 -40.523438 65.363281 -40.363281 64.71875 -40.15625 C 63.382812 -39.800781 62.71875 -39.398438 62.71875 -38.953125 C 62.71875 -37.984375 63.882812 -37.5 66.21875 -37.5 C 68.5625 -37.5 71.507812 -38.242188 75.0625 -39.734375 Z M 75.0625 -39.734375 "/></g></g></g><g fill="#000000" fill-opacity="1"><g transform="translate(124.792491, 107.027168)"><g><path d="M 5.4375 -44.390625 C 0.6875 -44.390625 -1.6875 -46.769531 -1.6875 -51.53125 C -1.6875 -55.925781 0.628906 -60.785156 5.265625 -66.109375 C 12.359375 -74.296875 21.289062 -80.003906 32.0625 -83.234375 C 35.53125 -84.234375 38.613281 -84.734375 41.3125 -84.734375 C 44.007812 -84.734375 46.253906 -84.570312 48.046875 -84.25 C 49.847656 -83.925781 51.429688 -83.40625 52.796875 -82.6875 C 55.742188 -81.113281 57.21875 -78.8125 57.21875 -75.78125 C 57.21875 -72.28125 56.289062 -69.015625 54.4375 -65.984375 C 51.007812 -60.378906 45.847656 -54.414062 38.953125 -48.09375 L 32.359375 -41.375 C 26.148438 -34.882812 23.046875 -30.066406 23.046875 -26.921875 C 23.046875 -25.742188 23.367188 -24.734375 24.015625 -23.890625 C 24.660156 -23.046875 25.554688 -22.625 26.703125 -22.625 C 27.847656 -22.625 29.085938 -22.84375 30.421875 -23.28125 C 31.753906 -23.726562 33.378906 -24.503906 35.296875 -25.609375 C 37.210938 -26.722656 39.429688 -28.226562 41.953125 -30.125 C 44.472656 -32.019531 47.34375 -34.414062 50.5625 -37.3125 C 57.457031 -43.488281 65.503906 -51.695312 74.703125 -61.9375 C 80.671875 -68.664062 86.15625 -73.019531 91.15625 -75 C 92.476562 -75.519531 93.515625 -75.78125 94.265625 -75.78125 C 95.015625 -75.78125 95.390625 -75.539062 95.390625 -75.0625 C 95.390625 -74.695312 95.066406 -74.457031 94.421875 -74.34375 L 92.671875 -73.734375 C 87.628906 -71.753906 82.4375 -67.4375 77.09375 -60.78125 C 71.75 -54.132812 66.503906 -45.960938 61.359375 -36.265625 C 56.222656 -26.566406 51.179688 -18.660156 46.234375 -12.546875 C 41.296875 -6.441406 36.207031 -1.269531 30.96875 2.96875 C 20.238281 11.632812 10.054688 15.96875 0.421875 15.96875 C -6.953125 15.96875 -11.972656 13.929688 -14.640625 9.859375 C -15.484375 8.566406 -15.90625 7.285156 -15.90625 6.015625 C -15.90625 4.742188 -15.734375 3.753906 -15.390625 3.046875 C -15.046875 2.347656 -14.613281 1.734375 -14.09375 1.203125 C -13 0.203125 -11.789062 -0.296875 -10.46875 -0.296875 C -9.863281 -0.296875 -9.207031 -0.078125 -8.5 0.359375 C -7.789062 0.804688 -7.4375 1.472656 -7.4375 2.359375 C -7.4375 3.242188 -7.78125 3.988281 -8.46875 4.59375 C -9.15625 5.195312 -9.988281 5.5 -10.96875 5.5 C -11.957031 5.5 -12.738281 5.378906 -13.3125 5.140625 C -13.425781 5.585938 -13.484375 6.179688 -13.484375 6.921875 C -13.484375 7.671875 -13.117188 8.53125 -12.390625 9.5 C -11.671875 10.46875 -10.6875 11.3125 -9.4375 12.03125 C -6.65625 13.601562 -3.550781 14.390625 -0.125 14.390625 C 3.300781 14.390625 6.695312 13.664062 10.0625 12.21875 C 13.4375 10.769531 16.976562 8.59375 20.6875 5.6875 C 28.632812 -0.519531 36.414062 -9.191406 44.03125 -20.328125 L 53.40625 -34 L 62.546875 -46.453125 C 46.335938 -29.597656 34.460938 -21.171875 26.921875 -21.171875 C 23.773438 -21.171875 21.773438 -22.539062 20.921875 -25.28125 C 20.679688 -26.050781 20.5625 -27.097656 20.5625 -28.421875 C 20.5625 -29.753906 21.066406 -31.660156 22.078125 -34.140625 C 23.085938 -36.617188 24.457031 -39.25 26.1875 -42.03125 C 29.65625 -47.5625 33.585938 -52.5625 37.984375 -57.03125 L 47.421875 -66.78125 C 51.085938 -70.601562 53.125 -73.03125 53.53125 -74.0625 C 53.9375 -75.09375 54.140625 -75.890625 54.140625 -76.453125 C 54.140625 -80.847656 50.1875 -83.046875 42.28125 -83.046875 C 36.3125 -83.046875 29.878906 -81.234375 22.984375 -77.609375 C 16.648438 -74.253906 11.265625 -70.140625 6.828125 -65.265625 C 2.316406 -60.304688 0.0625 -55.910156 0.0625 -52.078125 C 0.0625 -48.648438 1.894531 -46.9375 5.5625 -46.9375 C 9.351562 -46.9375 13.929688 -49.195312 19.296875 -53.71875 C 23.367188 -57.144531 26.894531 -60.789062 29.875 -64.65625 C 34.757812 -70.988281 37.441406 -75.039062 37.921875 -76.8125 C 38.242188 -77.375 38.445312 -77.65625 38.53125 -77.65625 C 38.851562 -77.65625 39.09375 -77.007812 39.25 -75.71875 C 39.414062 -74.4375 38.992188 -72.632812 37.984375 -70.3125 C 36.972656 -68 35.5625 -65.640625 33.75 -63.234375 C 31.9375 -60.835938 29.816406 -58.507812 27.390625 -56.25 C 24.972656 -53.988281 22.492188 -51.972656 19.953125 -50.203125 C 14.273438 -46.328125 9.4375 -44.390625 5.4375 -44.390625 Z M 5.4375 -44.390625 "/></g></g></g><g fill="#000000" fill-opacity="1"><g transform="translate(212.679176, 107.027168)"><g><path d="M 68.953125 -4.046875 C 68.953125 -2.359375 70.125 -1.515625 72.46875 -1.515625 C 75.96875 -1.515625 80.140625 -2.945312 84.984375 -5.8125 C 86.554688 -6.738281 87.945312 -7.785156 89.15625 -8.953125 C 89.351562 -8.828125 89.453125 -8.566406 89.453125 -8.171875 C 89.453125 -7.441406 89.351562 -6.976562 89.15625 -6.78125 C 85.28125 -3.59375 80.601562 -1.453125 75.125 -0.359375 C 73.675781 -0.0351562 72.070312 0.125 70.3125 0.125 C 68.5625 0.125 67.085938 -0.414062 65.890625 -1.5 C 64.703125 -2.59375 64.109375 -3.703125 64.109375 -4.828125 C 64.109375 -5.960938 64.21875 -6.972656 64.4375 -7.859375 C 64.664062 -8.742188 65.082031 -9.851562 65.6875 -11.1875 C 68.425781 -17.195312 73.425781 -24.835938 80.6875 -34.109375 L 90.1875 -45.734375 L 100.171875 -57.03125 L 109.96875 -67.625 L 119.21875 -77.0625 L 127.265625 -85.109375 C 126.054688 -84.253906 124.765625 -83.285156 123.390625 -82.203125 L 118.859375 -78.390625 L 105.609375 -66.359375 L 83.890625 -45.78125 C 72.597656 -35.0625 60.140625 -21.738281 46.515625 -5.8125 C 43.410156 -2.21875 41.351562 -0.421875 40.34375 -0.421875 C 40.0625 -0.421875 39.769531 -0.613281 39.46875 -1 C 39.164062 -1.382812 39.015625 -2.367188 39.015625 -3.953125 C 39.015625 -5.546875 39.546875 -7.96875 40.609375 -11.21875 C 41.679688 -14.46875 43.210938 -18.085938 45.203125 -22.078125 C 47.203125 -26.066406 49.625 -30.367188 52.46875 -34.984375 C 55.3125 -39.609375 58.507812 -44.421875 62.0625 -49.421875 C 69.519531 -59.859375 77.882812 -70.300781 87.15625 -80.75 L 82.375 -76.15625 L 74.765625 -68.34375 L 64 -56.921875 L 49.90625 -41.546875 C 32.476562 -22.441406 17.71875 -9.78125 5.625 -3.5625 C 0.863281 -1.144531 -3.410156 0.0625 -7.203125 0.0625 C -10.992188 0.0625 -13.832031 -0.648438 -15.71875 -2.078125 C -17.613281 -3.515625 -18.5625 -5.382812 -18.5625 -7.6875 C -18.5625 -9.375 -18.097656 -10.601562 -17.171875 -11.375 C -15.765625 -12.582031 -14.554688 -13.1875 -13.546875 -13.1875 C -11.085938 -13.1875 -9.859375 -12.257812 -9.859375 -10.40625 C -9.859375 -9.59375 -10.203125 -8.882812 -10.890625 -8.28125 C -11.578125 -7.675781 -12.472656 -7.375 -13.578125 -7.375 C -14.691406 -7.375 -15.566406 -7.597656 -16.203125 -8.046875 L -16.265625 -7.3125 C -16.265625 -5.539062 -15.507812 -4.140625 -14 -3.109375 C -12.488281 -2.085938 -10.492188 -1.578125 -8.015625 -1.578125 C -5.535156 -1.578125 -3.113281 -1.945312 -0.75 -2.6875 C 1.601562 -3.4375 4.234375 -4.664062 7.140625 -6.375 C 10.046875 -8.09375 13.28125 -10.34375 16.84375 -13.125 C 20.414062 -15.90625 24.378906 -19.3125 28.734375 -23.34375 C 33.085938 -27.375 37.90625 -32.09375 43.1875 -37.5 L 60.671875 -56.015625 C 71.035156 -67.335938 79.863281 -76.25 87.15625 -82.75 C 92.4375 -87.425781 95.539062 -89.765625 96.46875 -89.765625 C 97.5625 -89.765625 98.109375 -89.5625 98.109375 -89.15625 C 98.109375 -88.914062 97.863281 -88.570312 97.375 -88.125 L 95.6875 -86.671875 C 93.789062 -84.984375 91.835938 -82.726562 89.828125 -79.90625 L 83.28125 -70.40625 L 67.375 -45.84375 C 52.625 -21.851562 44.300781 -7.882812 42.40625 -3.9375 L 52.5 -15.484375 L 61.265625 -25.28125 L 69.625 -34.234375 L 78.328125 -43.0625 L 88.1875 -52.75 L 100.109375 -64.109375 C 118.453125 -81.328125 130.003906 -89.9375 134.765625 -89.9375 C 135.171875 -89.9375 135.375 -89.773438 135.375 -89.453125 C 135.375 -89.128906 134.847656 -88.613281 133.796875 -87.90625 C 132.742188 -87.207031 131.25 -86.007812 129.3125 -84.3125 C 127.382812 -82.625 124.925781 -80.144531 121.9375 -76.875 C 118.957031 -73.613281 115.894531 -70.046875 112.75 -66.171875 L 103.1875 -53.890625 L 93.515625 -40.765625 C 78.992188 -20.359375 71.332031 -9.429688 70.53125 -7.984375 C 69.476562 -6.085938 68.953125 -4.773438 68.953125 -4.046875 Z M 68.953125 -4.046875 "/></g></g></g></g></g></g></svg>