<svg xmlns="http://www.w3.org/2000/svg" xmlns:xlink="http://www.w3.org/1999/xlink" width="500" zoomAndPan="magnify" viewBox="0 0 375 374.999991" height="500" preserveAspectRatio="xMidYMid meet" version="1.0"><defs><filter x="0%" y="0%" width="100%" height="100%" id="18518da18f"><feColorMatrix values="0 0 0 0 1 0 0 0 0 1 0 0 0 0 1 0 0 0 1 0" color-interpolation-filters="sRGB"/></filter><g/><clipPath id="e3b56412b5"><path d="M 38 0 L 327.75 0 L 327.75 276 L 38 276 Z M 38 0 " clip-rule="nonzero"/></clipPath><mask id="bd2632bd28"><g filter="url(#18518da18f)"><rect x="-37.5" width="450" fill="#000000" y="-37.499999" height="449.999989" fill-opacity="0.89"/></g></mask><clipPath id="f64df3d371"><rect x="0" width="139" y="0" height="63"/></clipPath></defs><path fill="#000000" d="M 173.507812 40.0625 C 140.59375 41.652344 110.238281 59.160156 92.304688 86.898438 C 92.117188 87.1875 92.054688 87.535156 92.128906 87.875 C 92.203125 88.214844 92.410156 88.503906 92.703125 88.691406 C 92.90625 88.824219 93.140625 88.890625 93.386719 88.890625 C 93.828125 88.890625 94.234375 88.671875 94.476562 88.300781 C 111.957031 61.265625 141.546875 44.195312 173.628906 42.648438 C 174.335938 42.613281 174.886719 42.011719 174.859375 41.308594 C 174.84375 40.960938 174.695312 40.636719 174.4375 40.402344 C 174.179688 40.167969 173.847656 40.046875 173.507812 40.066406 Z M 173.507812 40.0625 " fill-opacity="1" fill-rule="nonzero"/><path fill="#000000" d="M 252.074219 110.652344 C 257.160156 110.652344 261.292969 106.519531 261.292969 101.4375 C 261.292969 96.359375 257.15625 92.222656 252.074219 92.222656 C 246.992188 92.222656 242.855469 96.359375 242.855469 101.4375 C 242.855469 106.519531 246.992188 110.652344 252.074219 110.652344 Z M 245.035156 101.4375 C 245.035156 97.558594 248.191406 94.402344 252.074219 94.402344 C 255.957031 94.402344 259.113281 97.558594 259.113281 101.4375 C 259.113281 105.320312 255.957031 108.476562 252.074219 108.476562 C 248.191406 108.476562 245.035156 105.320312 245.035156 101.4375 Z M 245.035156 101.4375 " fill-opacity="1" fill-rule="nonzero"/><path fill="#000000" d="M 238.253906 69.058594 C 234.964844 69.058594 232.285156 71.734375 232.285156 75.023438 C 232.285156 78.3125 234.964844 80.988281 238.253906 80.988281 C 241.542969 80.988281 244.21875 78.3125 244.21875 75.023438 C 244.21875 71.734375 241.542969 69.058594 238.253906 69.058594 Z M 242.042969 75.023438 C 242.042969 77.109375 240.34375 78.808594 238.253906 78.808594 C 236.164062 78.808594 234.464844 77.109375 234.464844 75.023438 C 234.464844 72.933594 236.164062 71.234375 238.253906 71.234375 C 240.34375 71.234375 242.042969 72.933594 242.042969 75.023438 Z M 242.042969 75.023438 " fill-opacity="1" fill-rule="nonzero"/><path fill="#000000" d="M 276.464844 63.109375 C 280.203125 63.109375 283.246094 60.066406 283.246094 56.328125 C 283.246094 52.59375 280.203125 49.550781 276.464844 49.550781 C 272.726562 49.550781 269.683594 52.59375 269.683594 56.328125 C 269.683594 60.066406 272.726562 63.109375 276.464844 63.109375 Z M 271.863281 56.328125 C 271.863281 53.792969 273.929688 51.726562 276.464844 51.726562 C 279.003906 51.726562 281.066406 53.792969 281.066406 56.328125 C 281.066406 58.867188 279.003906 60.929688 276.464844 60.929688 C 273.929688 60.929688 271.863281 58.867188 271.863281 56.328125 Z M 271.863281 56.328125 " fill-opacity="1" fill-rule="nonzero"/><g clip-path="url(#e3b56412b5)"><path fill="#000000" d="M 327.222656 4.476562 C 326.726562 3.070312 325.710938 1.949219 324.363281 1.308594 C 321.601562 0 318.28125 1.183594 316.964844 3.941406 L 234.953125 176.234375 L 233.742188 175.625 C 232.835938 175.167969 231.808594 175.089844 230.847656 175.410156 C 229.882812 175.726562 229.101562 176.398438 228.644531 177.304688 L 224.234375 186.054688 C 223.980469 186.558594 223.84375 187.117188 223.832031 187.683594 C 222.914062 187.261719 221.886719 187.199219 220.921875 187.511719 C 219.90625 187.84375 219.078125 188.546875 218.59375 189.5 L 212.378906 201.691406 C 211.890625 202.644531 211.808594 203.726562 212.136719 204.742188 C 212.40625 205.566406 212.941406 206.289062 213.65625 206.785156 C 212.160156 208.996094 208.285156 214.773438 203.5625 222.109375 C 200.382812 205.042969 194.621094 193.222656 191.6875 188.878906 C 192 188.390625 192.164062 187.824219 192.164062 187.246094 L 192.164062 182.238281 C 192.164062 180.820312 191.171875 179.578125 189.789062 179.265625 L 189.789062 170.332031 C 189.789062 170.140625 189.941406 169.988281 190.144531 169.988281 C 191.011719 169.984375 191.847656 169.671875 192.503906 169.101562 L 193.046875 168.628906 L 199.550781 171.65625 C 199.910156 171.820312 200.230469 172.066406 200.5 172.386719 C 207.011719 180.03125 212.976562 182.488281 215.949219 183.269531 C 216.597656 183.441406 217.296875 183.132812 217.605469 182.535156 C 217.921875 181.929688 217.78125 181.199219 217.257812 180.757812 C 216.355469 179.988281 208.304688 172.882812 203.386719 159.628906 L 204.828125 158.375 C 205.65625 157.65625 205.957031 156.519531 205.589844 155.484375 L 204.984375 153.78125 L 210.660156 151.804688 C 212.066406 151.3125 212.8125 149.765625 212.324219 148.359375 L 211.246094 145.269531 C 211.007812 144.589844 210.519531 144.042969 209.867188 143.726562 C 209.214844 143.410156 208.480469 143.371094 207.800781 143.605469 L 202.066406 145.601562 C 201.644531 144.742188 200.695312 144.230469 199.730469 144.355469 C 187.714844 145.945312 171.03125 155.441406 162.15625 160.964844 C 160.761719 161.832031 160.070312 163.375 160.34375 164.992188 C 160.621094 166.609375 161.789062 167.835938 163.390625 168.191406 L 169.121094 169.464844 C 171.003906 169.878906 172.320312 171.519531 172.320312 173.449219 L 172.320312 179.289062 C 170.988281 179.652344 170.0625 180.855469 170.0625 182.238281 L 170.0625 187.246094 C 170.0625 187.960938 170.316406 188.65625 170.777344 189.203125 C 169.957031 190.492188 167.886719 193.976562 165.554688 199.699219 L 165.554688 188.105469 C 165.554688 184.078125 162.277344 180.804688 158.25 180.804688 L 155.152344 180.804688 C 153.148438 180.804688 151.320312 179.53125 150.601562 177.636719 C 149.21875 173.972656 146.28125 169.175781 140.144531 167.121094 L 140.144531 164.199219 C 140.144531 162.242188 138.9375 160.476562 137.132812 159.78125 C 137.242188 159.488281 137.296875 159.183594 137.296875 158.867188 L 137.296875 156.96875 C 137.296875 155.609375 136.210938 154.46875 134.859375 154.394531 L 134.859375 146.925781 C 134.859375 144.542969 132.921875 142.605469 130.542969 142.605469 L 124.289062 142.605469 C 121.910156 142.605469 119.972656 144.542969 119.972656 146.925781 L 119.972656 154.390625 L 119.8125 154.390625 C 118.390625 154.390625 117.234375 155.546875 117.234375 156.96875 L 117.234375 158.867188 C 117.234375 159.183594 117.289062 159.488281 117.402344 159.78125 C 115.597656 160.476562 114.386719 162.242188 114.386719 164.199219 L 114.386719 167.121094 C 104.152344 170.5625 102.824219 181.84375 102.808594 181.957031 L 102.800781 182.039062 L 102.800781 221.945312 C 102.363281 220.355469 101.859375 218.695312 101.300781 217.007812 L 101.339844 216.882812 L 101.214844 216.753906 C 99.777344 212.453125 98.027344 208.125 96.015625 203.890625 C 103.652344 194.167969 102.582031 184.714844 100.335938 178.492188 C 97.871094 171.664062 93.558594 167.191406 93.375 167.003906 L 92.167969 165.765625 L 91.574219 167.390625 C 88.96875 174.507812 87.71875 181.066406 87.855469 186.886719 C 83.988281 176.996094 82.472656 167.957031 79.976562 153.105469 L 79.722656 151.59375 C 79.289062 149.011719 78.734375 146.226562 78.070312 143.320312 C 81.523438 138.847656 81.210938 129.585938 81.195312 129.199219 C 81.195312 125.242188 79.222656 120.46875 75.335938 115 C 87.859375 68.769531 130.101562 36.484375 178.078125 36.484375 C 196.503906 36.484375 214.660156 41.265625 230.582031 50.308594 C 245.722656 58.910156 258.660156 71.230469 268.003906 85.9375 C 268.378906 86.535156 269.175781 86.71875 269.773438 86.34375 C 270.101562 86.140625 270.320312 85.804688 270.371094 85.417969 C 270.414062 85.117188 270.339844 84.796875 270.160156 84.511719 C 260.59375 69.464844 247.351562 56.859375 231.859375 48.0625 C 215.546875 38.796875 196.949219 33.898438 178.078125 33.898438 C 154.199219 33.898438 131.480469 41.515625 112.378906 55.925781 C 93.449219 70.210938 79.96875 89.734375 73.382812 112.402344 C 68.269531 105.933594 62.367188 100.824219 62.117188 100.605469 L 60.898438 99.554688 L 60.378906 101.078125 C 60.261719 101.414062 57.554688 109.410156 58.136719 118.71875 C 58.722656 128.101562 62.40625 135.277344 69.09375 140.039062 C 69.070312 141.027344 69.054688 141.984375 69.054688 142.882812 C 69.054688 144.144531 69.085938 145.507812 69.144531 147.042969 C 68.050781 146.421875 66.914062 145.886719 65.757812 145.453125 C 59.675781 143.160156 54.550781 143.910156 54.335938 143.941406 L 53.222656 144.105469 L 53.425781 145.210938 C 53.472656 145.492188 54.710938 152.101562 59.035156 159.667969 C 61.671875 164.285156 66.402344 170.75 73.980469 175.347656 C 78.964844 191.332031 87.769531 206.207031 99.457031 218.367188 C 100.273438 220.890625 100.832031 222.957031 101.167969 224.304688 C 99.054688 222.71875 96.695312 221.378906 94.160156 220.324219 C 91.835938 215.488281 88.867188 211.203125 85.339844 207.589844 C 82.753906 199.386719 78.21875 193.496094 71.855469 190.082031 L 71.359375 189.492188 C 69.726562 187.707031 66.5625 184.074219 61.953125 178.6875 C 61.058594 170.957031 58.1875 160.5 49.609375 154.542969 C 44.378906 150.917969 39.503906 150.695312 39.300781 150.6875 L 38.238281 150.648438 L 38.175781 151.710938 C 37.546875 161.964844 39.8125 169.664062 44.910156 174.585938 C 50.230469 179.722656 57.046875 180.277344 59.734375 180.277344 C 59.976562 180.277344 60.210938 180.273438 60.433594 180.265625 C 63.253906 183.554688 65.546875 186.210938 67.265625 188.167969 C 67.15625 188.132812 67.050781 188.101562 66.945312 188.070312 C 60.273438 186.113281 54.519531 187.226562 54.277344 187.277344 L 52.953125 187.546875 L 53.5 188.785156 C 58.269531 199.597656 66.417969 204.605469 72.414062 206.902344 C 77.902344 209.007812 82.589844 209.28125 83.941406 209.3125 C 86.746094 212.21875 89.171875 215.550781 91.160156 219.222656 C 89.539062 218.710938 87.839844 218.292969 86.105469 217.976562 C 76.695312 216.269531 65.132812 217.3125 51.738281 221.074219 L 50.460938 221.433594 L 51.058594 222.613281 C 51.207031 222.90625 54.773438 229.84375 63.128906 237.121094 C 70.582031 243.613281 83.511719 251.644531 102.796875 253.0625 L 102.796875 262.785156 C 100.707031 261.339844 97.386719 259.269531 93.25 257.457031 C 83.882812 253.355469 74.835938 252.644531 67.09375 255.394531 L 66.261719 255.691406 L 66.378906 256.5625 C 66.40625 256.785156 67.15625 262.085938 72.507812 266.816406 C 77.882812 271.5625 85.878906 273.96875 96.269531 273.96875 C 98.910156 273.96875 101.707031 273.808594 104.582031 273.492188 C 105.765625 274.722656 107.402344 275.425781 109.082031 275.425781 L 156.675781 275.425781 C 159.261719 275.425781 161.707031 274.300781 163.398438 272.335938 C 164.757812 272.90625 166.191406 273.191406 167.664062 273.191406 L 175.03125 273.191406 L 174.890625 273.574219 L 248.164062 274.792969 L 248.160156 274.796875 L 249.605469 274.816406 L 249.757812 274.808594 L 250.320312 274.8125 L 250.40625 274.792969 C 253.324219 275.59375 256.144531 275.996094 258.792969 275.996094 C 263.832031 275.996094 268.273438 274.550781 271.992188 271.699219 C 276.722656 268.074219 278.554688 263.511719 278.632812 263.320312 L 279.097656 262.140625 L 277.859375 261.859375 C 269.542969 259.976562 262.167969 260.304688 255.933594 262.828125 C 251.023438 264.820312 248.234375 267.65625 247.207031 268.859375 C 246.058594 267.144531 244.957031 265.226562 243.9375 263.15625 C 245.054688 263.359375 246.183594 263.460938 247.300781 263.460938 C 254.132812 263.460938 259.375 259.769531 260.863281 258.597656 C 263.757812 259.292969 266.652344 259.644531 269.457031 259.644531 C 278.855469 259.644531 287.511719 255.894531 295.191406 248.5 C 302.785156 241.1875 306.550781 233.070312 306.707031 232.726562 L 307.21875 231.609375 L 306.042969 231.238281 C 288.324219 225.617188 275.332031 226.171875 267.421875 232.898438 C 258.238281 240.707031 259.144531 254.199219 259.433594 256.941406 C 258.015625 258.023438 250.960938 262.929688 242.773438 260.65625 C 242.65625 260.390625 242.542969 260.125 242.429688 259.855469 C 243.875 258.636719 247.894531 254.582031 254.84375 242.8125 C 254.980469 242.679688 268.722656 229.347656 277.570312 222.050781 C 279.054688 222.292969 280.535156 222.417969 281.972656 222.417969 C 289.785156 222.417969 297.605469 218.960938 304.585938 212.425781 C 310.945312 206.46875 314.464844 200.105469 314.613281 199.835938 L 315.355469 198.472656 L 313.820312 198.238281 C 298.125 195.832031 288.726562 202.042969 283.601562 207.683594 C 278.652344 213.128906 276.667969 219.078125 276.300781 220.273438 C 270.644531 224.925781 262.820312 232.21875 258.445312 236.355469 C 266.449219 221.246094 272.449219 205.011719 272.699219 204.328125 C 272.773438 204.160156 273.480469 202.652344 274.832031 200.378906 C 284.929688 199.273438 298.328125 195.332031 304.90625 182.863281 C 308.871094 175.347656 308.445312 168.386719 308.421875 168.097656 L 308.34375 166.957031 L 307.210938 167.089844 C 293.804688 168.65625 285.753906 176.054688 281.359375 181.988281 C 280.457031 183.210938 279.609375 184.496094 278.832031 185.824219 C 280.191406 182.652344 281.410156 179.390625 282.457031 176.109375 C 286.378906 173.148438 289.945312 168.65625 293.0625 162.753906 L 293.078125 162.738281 C 300.273438 156.96875 308.792969 147.257812 308.511719 133.738281 C 308.339844 125.65625 305.097656 120.078125 304.957031 119.84375 L 304.355469 118.832031 L 303.394531 119.511719 C 303.167969 119.671875 297.785156 123.527344 293.570312 130.714844 C 289.726562 137.265625 286.1875 147.949219 291.140625 161.671875 C 288.847656 166.023438 286.316406 169.574219 283.617188 172.226562 C 286.289062 162.652344 287.648438 152.769531 287.648438 142.84375 C 287.648438 132.410156 286.171875 122.085938 283.265625 112.160156 C 283.167969 111.832031 282.945312 111.554688 282.640625 111.390625 C 282.335938 111.226562 281.980469 111.191406 281.648438 111.289062 C 280.976562 111.496094 280.589844 112.210938 280.785156 112.890625 C 283.625 122.574219 285.0625 132.652344 285.0625 142.84375 C 285.0625 161.3125 280.257812 179.5 271.164062 195.449219 C 269.953125 197.574219 268.617188 199.726562 267.1875 201.863281 C 267.875 199.09375 268.511719 196.171875 269.082031 193.164062 C 279.949219 180.558594 280.363281 167.152344 278.800781 158.128906 C 277.09375 148.269531 272.796875 141.445312 272.613281 141.160156 L 271.726562 139.773438 L 270.796875 141.132812 C 270.617188 141.394531 266.363281 147.667969 263.71875 157.316406 C 261.292969 166.167969 259.859375 179.628906 266.800781 193.5 C 265.859375 198.335938 264.757812 202.882812 263.523438 207.007812 C 255.730469 217.289062 246.269531 225.980469 235.402344 232.847656 C 234.269531 225.097656 233.910156 218.703125 233.808594 216.246094 C 235.074219 216.046875 236.171875 215.253906 236.75 214.117188 L 242.964844 201.929688 C 243.925781 200.042969 243.261719 197.765625 241.460938 196.683594 C 241.933594 196.335938 242.320312 195.882812 242.585938 195.363281 L 247.039062 186.632812 C 247.496094 185.730469 247.578125 184.703125 247.265625 183.738281 C 246.953125 182.773438 246.28125 181.988281 245.378906 181.53125 L 244.207031 180.933594 L 326.996094 8.734375 C 327.640625 7.394531 327.722656 5.878906 327.222656 4.476562 Z M 93.007812 169.90625 C 94.359375 171.59375 96.761719 174.96875 98.3125 179.289062 C 101.167969 187.246094 100.039062 194.785156 94.960938 201.707031 C 94.761719 201.316406 94.566406 200.921875 94.363281 200.527344 C 94.621094 199.113281 95.777344 192.023438 94.441406 184.53125 C 94.390625 184.246094 94.230469 183.996094 93.988281 183.832031 C 93.742188 183.664062 93.445312 183.601562 93.15625 183.664062 C 92.570312 183.777344 92.195312 184.335938 92.300781 184.925781 C 93.167969 189.824219 92.886719 194.640625 92.621094 197.21875 C 92.335938 196.675781 92.070312 196.164062 91.8125 195.65625 L 91.730469 195.496094 C 91.453125 194.917969 90.515625 192.734375 90.175781 188.953125 C 89.832031 185.117188 90.042969 178.703125 93.007812 169.90625 Z M 78.292969 156.175781 C 76.523438 153.21875 74.34375 150.742188 71.820312 148.8125 C 71.710938 146.835938 71.65625 144.84375 71.65625 142.886719 C 71.65625 142.484375 71.65625 142.074219 71.664062 141.664062 C 72.992188 142.410156 74.421875 143.070312 75.917969 143.636719 C 76.585938 146.554688 77.148438 149.355469 77.585938 151.964844 L 77.890625 153.785156 C 78.027344 154.597656 78.164062 155.394531 78.292969 156.175781 Z M 60.324219 118.636719 C 59.90625 112.023438 61.3125 105.863281 61.972656 103.40625 C 63.730469 105.027344 68.007812 109.132812 71.757812 113.886719 C 76.585938 120 79.03125 125.167969 79.03125 129.246094 C 79.03125 129.3125 79.246094 136.011719 77.355469 140.277344 C 75.292969 131.886719 72.730469 123.980469 70.9375 118.8125 C 70.84375 118.535156 70.644531 118.316406 70.382812 118.1875 C 70.121094 118.0625 69.824219 118.046875 69.550781 118.144531 C 68.984375 118.339844 68.683594 118.960938 68.878906 119.527344 C 70.675781 124.714844 73.246094 132.648438 75.304688 141.042969 C 66.054688 137.066406 61.019531 129.53125 60.324219 118.636719 Z M 60.96875 158.648438 C 57.824219 153.15625 56.351562 148.042969 55.847656 146.015625 C 57.671875 145.945312 61.214844 146.058594 65.070312 147.523438 C 72.4375 150.324219 77.460938 156.507812 80 165.890625 C 80.355469 167.78125 80.691406 169.484375 81.03125 171.078125 C 78.117188 168.671875 73.101562 164.105469 70.949219 159.617188 C 70.699219 159.097656 70.089844 158.863281 69.558594 159.085938 C 69.28125 159.199219 69.058594 159.425781 68.953125 159.703125 C 68.84375 159.988281 68.855469 160.292969 68.988281 160.5625 C 72.070312 166.988281 80.140625 173.230469 81.789062 174.460938 C 81.984375 175.277344 82.1875 176.097656 82.394531 176.898438 C 71.125 173.050781 64.523438 164.859375 60.96875 158.652344 Z M 77.300781 177.15625 C 79.148438 178.046875 81.089844 178.800781 83.074219 179.398438 C 84.734375 185.222656 86.832031 190.582031 89.671875 196.25 C 89.800781 196.523438 89.894531 196.691406 89.914062 196.726562 C 90.378906 197.644531 90.863281 198.574219 91.355469 199.484375 C 93.652344 203.746094 95.6875 208.164062 97.414062 212.617188 C 88.582031 202.476562 81.816406 190.550781 77.300781 177.15625 Z M 52.574219 171.03125 C 53.46875 172.082031 55.820312 174.855469 58.550781 178.050781 C 55.695312 177.863281 50.484375 176.945312 46.425781 173.015625 C 42.003906 168.734375 39.945312 162 40.304688 152.996094 C 41.929688 153.257812 45.0625 154.039062 48.378906 156.339844 C 53.917969 160.1875 57.691406 166.835938 59.300781 175.578125 C 57.097656 172.996094 55.191406 170.75 54.238281 169.625 C 53.847656 169.167969 53.160156 169.113281 52.703125 169.5 C 52.480469 169.6875 52.34375 169.949219 52.320312 170.238281 C 52.296875 170.527344 52.386719 170.808594 52.574219 171.03125 Z M 73.691406 201.703125 C 74.851562 202.25 77.214844 203.5 80.023438 205.734375 C 80.492188 206.109375 80.96875 206.507812 81.441406 206.925781 C 78.382812 206.535156 73.851562 205.535156 69.207031 203.003906 C 63.472656 199.882812 59.070312 195.246094 56.117188 189.230469 C 58.125 189.03125 62.027344 188.90625 66.34375 190.167969 C 73.367188 192.222656 78.570312 196.996094 81.808594 204.355469 C 78.640625 201.761719 75.953125 200.347656 74.617188 199.726562 C 74.339844 199.597656 74.03125 199.589844 73.75 199.703125 C 73.46875 199.816406 73.246094 200.042969 73.136719 200.324219 C 72.933594 200.855469 73.175781 201.460938 73.691406 201.703125 Z M 64.628906 235.539062 C 58.488281 230.203125 54.960938 224.917969 53.683594 222.808594 C 69.722656 218.480469 82.800781 218.203125 92.550781 221.988281 L 92.652344 222.203125 L 92.855469 222.109375 C 96.660156 223.632812 100.011719 225.8125 102.8125 228.601562 L 102.8125 239.773438 C 98.851562 239.144531 89.191406 237.402344 82.929688 234.5 C 82.394531 234.25 81.769531 234.472656 81.503906 235.003906 C 81.371094 235.269531 81.355469 235.566406 81.449219 235.847656 C 81.550781 236.128906 81.753906 236.351562 82.027344 236.480469 C 88.75 239.597656 98.753906 241.359375 102.8125 241.980469 L 102.8125 250.886719 C 84.242188 249.484375 71.804688 241.769531 64.628906 235.539062 Z M 74.050781 265.269531 C 70.4375 262.117188 69.144531 258.589844 68.746094 257.152344 C 83.523438 252.515625 98.511719 262.320312 102.8125 265.480469 L 102.8125 267.890625 C 100.476562 267.664062 94.386719 266.746094 86.625 263.164062 L 86.375 263.050781 L 85.464844 265.027344 L 85.714844 265.144531 C 94.085938 269.007812 100.480469 269.894531 102.898438 270.09375 C 102.972656 270.558594 103.101562 271.015625 103.273438 271.453125 C 94.15625 272.332031 81.71875 271.964844 74.050781 265.269531 Z M 122.15625 146.929688 C 122.15625 145.75 123.117188 144.789062 124.296875 144.789062 L 130.550781 144.789062 C 131.730469 144.789062 132.691406 145.75 132.691406 146.929688 L 132.691406 154.195312 L 122.15625 154.195312 Z M 119.421875 156.972656 C 119.421875 156.753906 119.597656 156.574219 119.820312 156.574219 L 134.726562 156.574219 C 134.949219 156.574219 135.128906 156.753906 135.128906 156.972656 L 135.128906 158.875 C 135.128906 159.09375 134.949219 159.273438 134.726562 159.273438 L 119.820312 159.273438 C 119.597656 159.273438 119.421875 159.09375 119.421875 158.875 Z M 162.972656 266.574219 C 162.972656 270.035156 160.15625 272.855469 156.6875 272.855469 L 109.09375 272.855469 C 107.054688 272.855469 105.394531 271.160156 105.394531 269.070312 L 105.394531 182.191406 C 105.523438 181.136719 106.921875 171.824219 116.03125 169.328125 L 116.980469 169.066406 L 116.980469 164.203125 C 116.980469 163.019531 117.917969 162.058594 119.066406 162.058594 L 135.484375 162.058594 C 136.632812 162.058594 137.566406 163.023438 137.566406 164.203125 L 137.566406 169.066406 L 138.519531 169.328125 C 144.226562 170.890625 146.929688 175.207031 148.195312 178.554688 C 149.289062 181.445312 152.085938 183.390625 155.160156 183.390625 L 158.257812 183.390625 C 160.859375 183.390625 162.976562 185.507812 162.976562 188.109375 L 162.976562 266.570312 Z M 255.117188 265.640625 C 262.320312 262.066406 270.457031 262.613281 276.046875 263.710938 C 275.253906 265.160156 273.535156 267.820312 270.628906 270.027344 C 265.179688 274.171875 258.1875 274.957031 249.847656 272.371094 C 249.765625 272.253906 249.691406 272.152344 249.613281 272.0625 C 249.257812 271.632812 248.90625 271.191406 248.542969 270.714844 C 248.890625 270.261719 250.960938 267.707031 255.117188 265.644531 Z M 268.855469 234.570312 C 275.972656 228.515625 287.859375 227.972656 304.1875 232.949219 C 302.894531 235.402344 299.363281 241.507812 293.664062 246.984375 C 284.539062 255.753906 274.203125 259.066406 262.933594 256.835938 C 274.765625 246.808594 292.226562 239.78125 295.617188 238.472656 C 296.164062 238.261719 296.445312 237.636719 296.246094 237.085938 C 296.144531 236.808594 295.9375 236.589844 295.671875 236.464844 C 295.40625 236.34375 295.105469 236.335938 294.832031 236.441406 C 291.398438 237.769531 279.398438 242.648438 268.585938 249.890625 C 269.265625 247.738281 271.140625 244.082031 273.417969 240.46875 C 273.738281 239.964844 273.59375 239.292969 273.09375 238.96875 C 272.847656 238.808594 272.554688 238.757812 272.269531 238.820312 C 271.980469 238.882812 271.738281 239.054688 271.582031 239.304688 C 269.488281 242.617188 266.015625 248.597656 266.207031 251.539062 C 264.519531 252.746094 262.945312 253.972656 261.523438 255.179688 C 260.917969 242.726562 266.449219 236.621094 268.863281 234.570312 Z M 285.28125 209.109375 C 291.886719 201.875 300.839844 198.871094 311.894531 200.183594 C 310.703125 202.070312 307.578125 206.683594 303.085938 210.878906 C 295.753906 217.734375 287.976562 220.859375 279.964844 220.175781 C 286.722656 214.964844 293.375 211.359375 295.261719 210.371094 C 295.789062 210.097656 295.996094 209.460938 295.730469 208.925781 C 295.601562 208.660156 295.371094 208.464844 295.09375 208.371094 C 294.8125 208.28125 294.515625 208.304688 294.253906 208.441406 C 292.476562 209.371094 286.222656 212.757812 279.6875 217.652344 C 280.71875 215.390625 282.5 212.160156 285.28125 209.113281 Z M 295.441406 131.875 C 298.414062 126.789062 302.136719 123.375 303.679688 122.082031 C 304.484375 123.816406 306.257812 128.25 306.359375 133.863281 C 306.519531 142.59375 302.859375 150.628906 295.480469 157.761719 C 296.636719 155.097656 297.734375 152.183594 298.746094 149.097656 C 301.3125 141.246094 302.625 134.316406 303.074219 131.703125 C 303.125 131.410156 303.054688 131.121094 302.882812 130.882812 C 302.710938 130.644531 302.453125 130.488281 302.160156 130.445312 C 301.570312 130.355469 301.027344 130.746094 300.925781 131.335938 C 300.304688 134.953125 297.863281 147.589844 292.535156 158.917969 C 289.589844 149.320312 290.566406 140.21875 295.441406 131.871094 Z M 213.355469 180.003906 C 210.613281 178.722656 206.550781 176.132812 202.160156 170.980469 C 201.683594 170.421875 201.117188 169.984375 200.46875 169.683594 L 194.84375 167.066406 L 201.640625 161.15625 C 205.273438 170.566406 210.429688 176.910156 213.355469 180.003906 Z M 208.507812 145.667969 L 208.519531 145.664062 C 208.652344 145.617188 208.792969 145.625 208.921875 145.6875 C 209.050781 145.75 209.144531 145.855469 209.191406 145.988281 L 210.269531 149.074219 C 210.316406 149.207031 210.308594 149.351562 210.246094 149.476562 C 210.183594 149.605469 210.078125 149.703125 209.945312 149.746094 L 204.4375 151.664062 L 203.011719 147.582031 Z M 169.597656 167.339844 L 163.867188 166.070312 C 163.003906 165.878906 162.59375 165.199219 162.496094 164.628906 C 162.398438 164.058594 162.5625 163.28125 163.3125 162.816406 C 172.035156 157.386719 188.40625 148.054688 200.019531 146.515625 C 200.0625 146.511719 200.105469 146.535156 200.121094 146.574219 L 203.539062 156.214844 C 203.601562 156.402344 203.550781 156.605469 203.402344 156.734375 L 191.074219 167.460938 C 190.8125 167.691406 190.480469 167.8125 190.132812 167.8125 C 188.742188 167.8125 187.609375 168.945312 187.609375 170.335938 L 187.609375 179.1875 L 174.5 179.1875 L 174.5 173.453125 C 174.5 170.496094 172.484375 167.984375 169.597656 167.34375 Z M 172.246094 182.242188 C 172.246094 181.757812 172.640625 181.363281 173.125 181.363281 L 189.109375 181.363281 C 189.597656 181.363281 189.988281 181.757812 189.988281 182.242188 L 189.988281 187.25 C 189.988281 187.734375 189.597656 188.128906 189.109375 188.128906 L 173.125 188.128906 C 172.640625 188.128906 172.246094 187.734375 172.246094 187.25 Z M 167.679688 271.027344 C 166.648438 271.027344 165.625 270.847656 164.644531 270.492188 C 165.242188 269.277344 165.558594 267.925781 165.558594 266.574219 L 165.558594 205.933594 C 168.613281 196.988281 171.757812 191.730469 172.691406 190.273438 C 172.835938 190.296875 172.980469 190.304688 173.125 190.304688 L 189.109375 190.304688 C 189.386719 190.304688 189.664062 190.265625 189.9375 190.1875 C 190.46875 191.007812 192.214844 193.835938 194.28125 198.566406 C 196.503906 203.667969 199.578125 212.140625 201.613281 223.542969 C 201.691406 223.996094 201.734375 224.46875 201.742188 224.941406 C 192.574219 239.304688 180.652344 258.9375 175.875 271.027344 Z M 178.042969 271.460938 C 185.699219 252.421875 210.566406 215.242188 215.589844 207.820312 L 216.683594 208.378906 C 214.8125 211.402344 208.429688 221.828125 202.058594 233.523438 C 191.929688 252.113281 186.648438 264.917969 186.355469 271.597656 Z M 188.535156 271.636719 C 189.226562 257.273438 215.453125 214.507812 218.632812 209.371094 L 219.078125 209.597656 C 216.203125 214.78125 192.726562 257.554688 193.417969 271.71875 Z M 211.152344 272.011719 C 211.351562 269.617188 212 262.207031 213.089844 253.417969 C 213.171875 252.765625 214.8125 241.101562 214.832031 241 C 214.925781 240.457031 214.625 239.917969 214.132812 239.75 C 213.824219 239.640625 213.488281 239.671875 213.210938 239.835938 C 212.9375 239.996094 212.746094 240.269531 212.691406 240.585938 C 212.117188 243.902344 211.613281 247.515625 211.183594 251.195312 C 211.183594 251.195312 211.183594 251.195312 211.1875 251.195312 C 209.867188 261.453125 209.113281 270.238281 208.96875 271.980469 L 205.453125 271.921875 C 205.671875 268.851562 206.675781 257.589844 210.335938 243.457031 C 210.539062 242.679688 212.839844 234.644531 213.976562 231.359375 C 214.15625 230.835938 213.945312 230.253906 213.484375 230.003906 C 213.203125 229.851562 212.867188 229.832031 212.566406 229.949219 C 212.269531 230.0625 212.035156 230.304688 211.929688 230.605469 C 211.875 230.773438 211.820312 230.9375 211.761719 231.101562 C 211.761719 231.101562 211.757812 231.097656 211.757812 231.097656 C 205.074219 250.738281 203.546875 267.964844 203.273438 271.886719 L 200.984375 271.847656 C 201.183594 268.867188 202.148438 258.746094 206.230469 248.324219 C 206.429688 247.8125 206.246094 247.222656 205.800781 246.953125 C 205.519531 246.785156 205.183594 246.75 204.882812 246.855469 C 204.578125 246.957031 204.335938 247.1875 204.21875 247.484375 C 199.980469 258.285156 199.007812 268.75 198.804688 271.8125 L 195.605469 271.761719 C 195.226562 266.101562 199.453125 253.816406 207.832031 236.230469 C 213.101562 225.167969 218.484375 215.21875 220.558594 211.441406 C 215.324219 226.902344 214.679688 267.09375 214.617188 272.078125 L 211.160156 272.019531 Z M 216.789062 272.105469 C 216.859375 267.074219 217.574219 225.898438 222.832031 211.511719 L 223.035156 211.613281 C 218.347656 229.382812 219.875 264.976562 220.242188 272.164062 Z M 222.425781 272.199219 C 222.292969 269.496094 221.875 260.195312 221.914062 249.40625 C 221.976562 233.15625 223.054688 220.441406 225.023438 212.625 L 225.527344 212.882812 C 223.847656 224.597656 224.382812 240.175781 225.132812 251.1875 C 225.832031 261.507812 226.832031 269.839844 227.140625 272.277344 L 222.429688 272.199219 Z M 229.339844 272.316406 C 229.113281 270.527344 228.039062 261.871094 227.304688 251.027344 C 226.582031 240.421875 226.050781 225.390625 227.582031 213.929688 L 228.421875 214.355469 C 228.164062 238.96875 234.183594 266.828125 235.453125 272.417969 Z M 250.640625 245.480469 L 250.496094 245.714844 L 250.542969 245.742188 C 250.175781 246.324219 249.8125 246.898438 249.457031 247.445312 C 247.214844 243.585938 246.386719 239.878906 246.992188 236.425781 C 247.480469 233.640625 248.800781 231.722656 249.582031 230.792969 C 255.453125 237.59375 250.84375 245.160156 250.644531 245.480469 Z M 297.871094 178.210938 C 297.769531 177.933594 297.566406 177.707031 297.292969 177.585938 C 297.027344 177.464844 296.730469 177.453125 296.457031 177.5625 C 290.035156 180.050781 283.855469 184.777344 278.554688 191.238281 C 279.785156 188.398438 281.339844 185.710938 283.171875 183.246094 C 288.945312 175.476562 296.71875 170.824219 306.28125 169.421875 C 306.226562 171.476562 305.78125 176.628906 302.972656 181.921875 C 298.242188 190.828125 289.285156 196.242188 276.34375 198.015625 C 280.492188 191.679688 287.460938 183.394531 297.230469 179.59375 C 297.792969 179.378906 298.074219 178.769531 297.871094 178.210938 Z M 265.832031 157.953125 C 267.683594 151.175781 270.492188 145.933594 271.683594 143.886719 C 272.839844 146.066406 275.496094 151.617188 276.691406 158.566406 C 278.601562 169.679688 276.320312 179.804688 269.910156 188.667969 C 271.855469 176.859375 272.398438 166.828125 272.519531 164.019531 C 272.53125 163.726562 272.429688 163.449219 272.230469 163.234375 C 272.03125 163.015625 271.757812 162.894531 271.460938 162.886719 C 270.859375 162.886719 270.367188 163.339844 270.34375 163.921875 C 270.214844 166.894531 269.636719 177.492188 267.511719 189.777344 C 262.3125 177.441406 263.722656 165.671875 265.832031 157.949219 Z M 235.894531 235.621094 C 247.054688 228.726562 256.8125 219.949219 264.886719 209.53125 C 264.886719 209.53125 265.355469 208.917969 265.453125 208.792969 C 268.378906 204.953125 271.066406 200.894531 273.433594 196.738281 C 274.1875 195.417969 274.917969 194.066406 275.621094 192.707031 C 275.207031 193.855469 275.023438 194.5625 275.011719 194.609375 L 274.3125 197.078125 C 272.050781 200.589844 270.859375 203.1875 270.726562 203.472656 L 270.699219 203.535156 C 270.628906 203.726562 263.679688 222.695312 254.683594 238.769531 C 254.769531 234.867188 253.316406 231.390625 250.359375 228.4375 L 249.640625 227.71875 L 248.875 228.386719 C 248.785156 228.464844 239.90625 236.421875 248.121094 249.457031 C 244.789062 254.371094 242.621094 256.726562 241.585938 257.722656 C 239.171875 251.464844 237.246094 244.035156 235.867188 235.640625 Z M 234 237.804688 C 236.726562 253.242188 241.183594 264.953125 247.257812 272.617188 L 237.699219 272.457031 C 236.464844 267.121094 230.511719 240.0625 230.589844 215.464844 L 231.394531 215.871094 C 231.476562 215.914062 231.558594 215.953125 231.644531 215.988281 C 231.742188 218.574219 232.191406 227.5625 234 237.804688 Z M 241.050781 200.945312 L 234.835938 213.136719 C 234.378906 214.03125 233.277344 214.386719 232.382812 213.933594 L 215.117188 205.136719 C 214.683594 204.914062 214.359375 204.539062 214.210938 204.074219 C 214.058594 203.609375 214.097656 203.117188 214.320312 202.683594 L 220.535156 190.492188 C 220.757812 190.058594 221.132812 189.734375 221.597656 189.585938 C 222.054688 189.4375 222.554688 189.476562 222.988281 189.699219 L 240.253906 198.492188 C 241.148438 198.949219 241.507812 200.050781 241.050781 200.945312 Z M 244.417969 183.472656 C 244.804688 183.671875 245.085938 184.003906 245.21875 184.414062 C 245.355469 184.828125 245.320312 185.261719 245.125 185.648438 L 240.671875 194.378906 C 240.476562 194.761719 240.140625 195.046875 239.730469 195.179688 C 239.320312 195.316406 238.882812 195.28125 238.496094 195.085938 L 237.582031 194.617188 L 237.554688 194.675781 L 228.566406 190.09375 L 228.585938 190.058594 L 226.898438 189.207031 C 226.101562 188.804688 225.78125 187.835938 226.179688 187.039062 L 230.589844 178.285156 C 230.785156 177.902344 231.121094 177.617188 231.527344 177.480469 C 231.941406 177.34375 232.378906 177.375 232.761719 177.570312 Z M 324.664062 7.617188 L 242.140625 179.316406 L 237.511719 176.867188 L 319.300781 5.054688 C 320.003906 3.578125 321.777344 2.945312 323.253906 3.644531 C 323.976562 3.988281 324.519531 4.589844 324.785156 5.339844 C 325.050781 6.089844 325.007812 6.902344 324.664062 7.617188 Z M 324.664062 7.617188 " fill-opacity="1" fill-rule="nonzero"/></g><path fill="#000000" d="M 124.46875 253.292969 C 124.761719 253.289062 125.03125 253.171875 125.234375 252.964844 C 125.4375 252.757812 125.546875 252.480469 125.542969 252.191406 L 124.714844 187.167969 C 124.707031 186.578125 124.21875 186.09375 123.625 186.09375 L 123.609375 186.09375 C 123.320312 186.097656 123.046875 186.214844 122.84375 186.421875 C 122.640625 186.628906 122.53125 186.90625 122.535156 187.195312 L 123.367188 252.214844 C 123.375 252.808594 123.863281 253.289062 124.46875 253.289062 Z M 124.46875 253.292969 " fill-opacity="1" fill-rule="nonzero"/><path fill="#000000" d="M 130.855469 239.554688 C 131.453125 239.554688 131.941406 239.0625 131.941406 238.464844 L 131.941406 205.878906 C 131.941406 205.277344 131.453125 204.789062 130.855469 204.789062 C 130.253906 204.789062 129.765625 205.277344 129.765625 205.878906 L 129.765625 238.464844 C 129.765625 239.0625 130.253906 239.554688 130.855469 239.554688 Z M 130.855469 239.554688 " fill-opacity="1" fill-rule="nonzero"/><path fill="#000000" d="M 148.410156 264.671875 L 154.105469 264.671875 C 156.945312 264.671875 159.257812 262.359375 159.257812 259.519531 L 159.257812 196.527344 C 159.257812 193.6875 156.949219 191.375 154.105469 191.375 L 148.410156 191.375 C 145.570312 191.375 143.257812 193.683594 143.257812 196.527344 L 143.257812 259.519531 C 143.257812 262.359375 145.566406 264.671875 148.410156 264.671875 Z M 157.082031 259.519531 C 157.082031 261.160156 155.746094 262.492188 154.105469 262.492188 L 148.410156 262.492188 C 146.769531 262.492188 145.4375 261.160156 145.4375 259.519531 L 145.4375 196.527344 C 145.4375 194.886719 146.769531 193.554688 148.410156 193.554688 L 154.105469 193.554688 C 155.746094 193.554688 157.082031 194.886719 157.082031 196.527344 Z M 157.082031 259.519531 " fill-opacity="1" fill-rule="nonzero"/><path fill="#000000" d="M 173.378906 162.898438 L 168.675781 161.902344 C 168.394531 161.839844 168.101562 161.894531 167.859375 162.054688 C 167.617188 162.214844 167.445312 162.457031 167.386719 162.742188 C 167.328125 163.027344 167.382812 163.320312 167.539062 163.5625 C 167.699219 163.804688 167.941406 163.972656 168.226562 164.035156 L 172.929688 165.03125 C 174.804688 165.425781 176.164062 167.105469 176.164062 169.019531 L 176.164062 176.359375 C 176.164062 176.957031 176.652344 177.445312 177.253906 177.445312 C 177.855469 177.445312 178.34375 176.957031 178.34375 176.359375 L 178.34375 169.019531 C 178.34375 166.082031 176.257812 163.507812 173.378906 162.898438 Z M 173.378906 162.898438 " fill-opacity="1" fill-rule="nonzero"/><path fill="#000000" d="M 197.128906 150.96875 C 197.277344 151.050781 197.386719 151.183594 197.4375 151.347656 L 198.019531 153.289062 C 198.078125 153.488281 198.210938 153.648438 198.398438 153.75 C 198.578125 153.847656 198.789062 153.867188 198.988281 153.808594 L 199.585938 153.628906 C 199.78125 153.570312 199.949219 153.4375 200.046875 153.253906 C 200.140625 153.066406 200.164062 152.859375 200.105469 152.660156 L 199.550781 150.816406 C 199.34375 150.117188 198.921875 149.539062 198.371094 149.179688 C 197.664062 148.71875 196.800781 148.597656 196 148.847656 C 186.976562 151.664062 178.871094 156.09375 176.601562 157.386719 C 176.347656 157.53125 176.164062 157.769531 176.089844 158.054688 C 176.015625 158.339844 176.058594 158.636719 176.210938 158.890625 C 176.410156 159.222656 176.757812 159.421875 177.140625 159.421875 C 177.328125 159.421875 177.515625 159.371094 177.679688 159.28125 C 179.898438 158.019531 187.8125 153.6875 196.648438 150.929688 C 196.808594 150.878906 196.976562 150.894531 197.128906 150.972656 Z M 197.128906 150.96875 " fill-opacity="1" fill-rule="nonzero"/><path fill="#000000" d="M 254.511719 101.605469 C 255.945312 101.605469 257.109375 100.441406 257.109375 99.007812 C 257.109375 97.578125 255.945312 96.414062 254.511719 96.414062 C 253.082031 96.414062 251.914062 97.578125 251.914062 99.007812 C 251.914062 100.441406 253.082031 101.605469 254.511719 101.605469 Z M 253.226562 99.007812 C 253.226562 98.300781 253.804688 97.722656 254.511719 97.722656 C 255.222656 97.722656 255.796875 98.300781 255.796875 99.007812 C 255.796875 99.71875 255.222656 100.292969 254.511719 100.292969 C 253.804688 100.292969 253.226562 99.71875 253.226562 99.007812 Z M 253.226562 99.007812 " fill-opacity="1" fill-rule="nonzero"/><g mask="url(#bd2632bd28)"><g transform="matrix(1, 0, 0, 1, 117, 293)"><g clip-path="url(#f64df3d371)"><g fill="#000000" fill-opacity="1"><g transform="translate(0.605686, 49.388132)"><g><path d="M 3.28125 0.15625 C 2.945312 0.15625 2.695312 0.0390625 2.53125 -0.1875 C 2.375 -0.425781 2.296875 -0.707031 2.296875 -1.03125 C 2.328125 -1.582031 2.429688 -1.910156 2.609375 -2.015625 C 2.796875 -2.128906 3.144531 -2.1875 3.65625 -2.1875 C 4.71875 -2.1875 5.503906 -2.375 6.015625 -2.75 C 6.523438 -3.132812 6.84375 -3.609375 6.96875 -4.171875 C 7.09375 -4.742188 7.175781 -5.484375 7.21875 -6.390625 L 7.21875 -28.09375 C 7.175781 -29.007812 7.09375 -29.75 6.96875 -30.3125 C 6.84375 -30.875 6.523438 -31.347656 6.015625 -31.734375 C 5.503906 -32.117188 4.71875 -32.3125 3.65625 -32.3125 L 3.328125 -32.3125 C 2.960938 -32.3125 2.707031 -32.375 2.5625 -32.5 C 2.414062 -32.625 2.328125 -32.941406 2.296875 -33.453125 C 2.296875 -33.785156 2.375 -34.066406 2.53125 -34.296875 C 2.695312 -34.535156 2.945312 -34.65625 3.28125 -34.65625 C 5.644531 -34.550781 7.796875 -34.5 9.734375 -34.5 L 17.4375 -34.5 C 19.445312 -34.5 21.070312 -34.351562 22.3125 -34.0625 C 23.550781 -33.769531 24.660156 -33.3125 25.640625 -32.6875 C 26.585938 -32.070312 27.332031 -31.222656 27.875 -30.140625 C 28.425781 -29.066406 28.703125 -27.894531 28.703125 -26.625 C 28.703125 -24.363281 27.960938 -22.566406 26.484375 -21.234375 C 25.015625 -19.910156 23.296875 -19.007812 21.328125 -18.53125 L 21.328125 -18.375 C 23.222656 -18.375 24.941406 -18 26.484375 -17.25 C 28.035156 -16.5 29.238281 -15.492188 30.09375 -14.234375 C 30.945312 -12.984375 31.375 -11.628906 31.375 -10.171875 C 31.375 -7.691406 30.617188 -5.6875 29.109375 -4.15625 C 27.597656 -2.625 25.703125 -1.539062 23.421875 -0.90625 C 21.148438 -0.269531 18.789062 0.046875 16.34375 0.046875 L 9.78125 0 C 7.8125 0 5.644531 0.0507812 3.28125 0.15625 Z M 14.921875 -19.46875 C 16.378906 -19.46875 17.644531 -19.578125 18.71875 -19.796875 C 19.800781 -20.015625 20.757812 -20.597656 21.59375 -21.546875 C 22.4375 -22.492188 22.859375 -23.96875 22.859375 -25.96875 C 22.859375 -30.300781 20.722656 -32.46875 16.453125 -32.46875 L 12.625 -32.46875 L 12.625 -19.46875 Z M 16.5625 -2.125 C 19.257812 -2.164062 21.421875 -2.832031 23.046875 -4.125 C 24.671875 -5.414062 25.484375 -7.539062 25.484375 -10.5 C 25.296875 -12.46875 24.375 -14.085938 22.71875 -15.359375 C 21.0625 -16.640625 18.445312 -17.28125 14.875 -17.28125 L 12.625 -17.28125 L 12.625 -6.390625 C 12.625 -5.148438 12.742188 -4.226562 12.984375 -3.625 C 13.222656 -3.03125 13.601562 -2.628906 14.125 -2.421875 C 14.65625 -2.222656 15.46875 -2.125 16.5625 -2.125 Z M 16.5625 -2.125 "/></g></g></g><g fill="#000000" fill-opacity="1"><g transform="translate(41.443751, 49.388132)"><g><path d="M 10.390625 0.15625 C 10.054688 0.15625 9.804688 0.0390625 9.640625 -0.1875 C 9.484375 -0.425781 9.40625 -0.707031 9.40625 -1.03125 C 9.4375 -1.582031 9.550781 -1.910156 9.75 -2.015625 C 9.957031 -2.128906 10.296875 -2.1875 10.765625 -2.1875 C 11.828125 -2.1875 12.613281 -2.375 13.125 -2.75 C 13.632812 -3.132812 13.953125 -3.609375 14.078125 -4.171875 C 14.203125 -4.742188 14.285156 -5.484375 14.328125 -6.390625 L 14.328125 -13.234375 C 14.328125 -13.816406 13.421875 -15.9375 11.609375 -19.59375 C 9.804688 -23.257812 8.34375 -26.113281 7.21875 -28.15625 C 6.488281 -29.46875 5.6875 -30.441406 4.8125 -31.078125 C 3.9375 -31.710938 2.859375 -32.160156 1.578125 -32.421875 C 1.429688 -32.453125 1.210938 -32.492188 0.921875 -32.546875 C 0.628906 -32.609375 0.4375 -32.71875 0.34375 -32.875 C 0.257812 -33.039062 0.21875 -33.304688 0.21875 -33.671875 C 0.21875 -34.109375 0.332031 -34.398438 0.5625 -34.546875 C 0.800781 -34.691406 1.175781 -34.765625 1.6875 -34.765625 C 4.601562 -34.765625 6.878906 -34.375 8.515625 -33.59375 C 10.160156 -32.8125 11.625 -31.304688 12.90625 -29.078125 C 13.519531 -27.878906 14.375 -26.148438 15.46875 -23.890625 C 17.070312 -20.679688 18.128906 -18.601562 18.640625 -17.65625 L 18.8125 -17.65625 L 24.875 -29.625 C 25.207031 -30.351562 25.375 -30.882812 25.375 -31.21875 C 25.375 -31.65625 25.144531 -31.945312 24.6875 -32.09375 C 24.226562 -32.238281 23.488281 -32.3125 22.46875 -32.3125 L 22.140625 -32.3125 C 21.773438 -32.3125 21.519531 -32.375 21.375 -32.5 C 21.226562 -32.625 21.140625 -32.941406 21.109375 -33.453125 C 21.109375 -33.785156 21.1875 -34.066406 21.34375 -34.296875 C 21.507812 -34.535156 21.738281 -34.65625 22.03125 -34.65625 C 24.40625 -34.550781 26.390625 -34.5 27.984375 -34.5 C 29.335938 -34.5 31.179688 -34.550781 33.515625 -34.65625 C 33.835938 -34.65625 34.082031 -34.535156 34.25 -34.296875 C 34.414062 -34.066406 34.5 -33.785156 34.5 -33.453125 C 34.457031 -32.941406 34.363281 -32.625 34.21875 -32.5 C 34.070312 -32.375 33.816406 -32.3125 33.453125 -32.3125 C 31.960938 -32.3125 30.757812 -32.023438 29.84375 -31.453125 C 28.9375 -30.890625 28.117188 -29.9375 27.390625 -28.59375 L 21.21875 -16.953125 C 21.101562 -16.734375 20.878906 -16.285156 20.546875 -15.609375 C 20.222656 -14.929688 20.003906 -14.3125 19.890625 -13.75 C 19.785156 -13.1875 19.734375 -12.503906 19.734375 -11.703125 L 19.734375 -6.390625 C 19.773438 -5.484375 19.859375 -4.742188 19.984375 -4.171875 C 20.109375 -3.609375 20.425781 -3.132812 20.9375 -2.75 C 21.445312 -2.375 22.234375 -2.1875 23.296875 -2.1875 L 23.625 -2.1875 C 23.988281 -2.1875 24.242188 -2.117188 24.390625 -1.984375 C 24.535156 -1.859375 24.625 -1.539062 24.65625 -1.03125 C 24.65625 -0.707031 24.570312 -0.425781 24.40625 -0.1875 C 24.25 0.0390625 24.023438 0.15625 23.734375 0.15625 C 21.398438 0.0507812 19.210938 0 17.171875 0 C 15.015625 0 12.753906 0.0507812 10.390625 0.15625 Z M 10.390625 0.15625 "/></g></g></g><g fill="#000000" fill-opacity="1"><g transform="translate(82.281815, 49.388132)"><g><path d="M 23.40625 0.265625 C 22.851562 0.265625 22.46875 0.0859375 22.25 -0.265625 L 9.953125 -28.09375 L 9.78125 -28.09375 L 9.890625 -6.390625 C 9.929688 -5.410156 10.003906 -4.65625 10.109375 -4.125 C 10.222656 -3.59375 10.523438 -3.132812 11.015625 -2.75 C 11.503906 -2.375 12.28125 -2.1875 13.34375 -2.1875 L 13.671875 -2.1875 C 14.035156 -2.1875 14.296875 -2.117188 14.453125 -1.984375 C 14.617188 -1.859375 14.722656 -1.539062 14.765625 -1.03125 C 14.765625 -0.707031 14.679688 -0.425781 14.515625 -0.1875 C 14.347656 0.0390625 14.101562 0.15625 13.78125 0.15625 L 12.40625 0.109375 C 10.726562 0.0351562 9.523438 0 8.796875 0 C 7.554688 0 5.753906 0.0507812 3.390625 0.15625 C 3.054688 0.15625 2.804688 0.0390625 2.640625 -0.1875 C 2.484375 -0.425781 2.40625 -0.707031 2.40625 -1.03125 C 2.4375 -1.582031 2.539062 -1.910156 2.71875 -2.015625 C 2.90625 -2.128906 3.253906 -2.1875 3.765625 -2.1875 C 4.828125 -2.1875 5.601562 -2.375 6.09375 -2.75 C 6.582031 -3.132812 6.878906 -3.59375 6.984375 -4.125 C 7.097656 -4.65625 7.175781 -5.410156 7.21875 -6.390625 L 7.328125 -28.09375 C 7.328125 -29.226562 7.195312 -30.078125 6.9375 -30.640625 C 6.6875 -31.203125 6.3125 -31.601562 5.8125 -31.84375 C 5.320312 -32.082031 4.601562 -32.289062 3.65625 -32.46875 C 3.507812 -32.507812 3.289062 -32.554688 3 -32.609375 C 2.707031 -32.660156 2.515625 -32.769531 2.421875 -32.9375 C 2.335938 -33.101562 2.296875 -33.367188 2.296875 -33.734375 C 2.296875 -34.171875 2.410156 -34.460938 2.640625 -34.609375 C 2.878906 -34.753906 3.253906 -34.828125 3.765625 -34.828125 C 5.921875 -34.828125 7.691406 -34.6875 9.078125 -34.40625 C 10.460938 -34.132812 11.671875 -33.578125 12.703125 -32.734375 C 13.742188 -31.898438 14.613281 -30.664062 15.3125 -29.03125 L 24.71875 -7.921875 L 24.875 -7.921875 L 35.640625 -34.5 L 38.765625 -34.5 C 40.765625 -34.5 42.929688 -34.550781 45.265625 -34.65625 C 45.597656 -34.65625 45.84375 -34.535156 46 -34.296875 C 46.164062 -34.066406 46.25 -33.785156 46.25 -33.453125 C 46.21875 -32.910156 46.097656 -32.582031 45.890625 -32.46875 C 45.691406 -32.363281 45.359375 -32.3125 44.890625 -32.3125 C 43.828125 -32.3125 43.039062 -32.117188 42.53125 -31.734375 C 42.019531 -31.347656 41.703125 -30.875 41.578125 -30.3125 C 41.453125 -29.75 41.367188 -29.007812 41.328125 -28.09375 L 41.328125 -6.390625 C 41.367188 -5.484375 41.453125 -4.742188 41.578125 -4.171875 C 41.703125 -3.609375 42.019531 -3.132812 42.53125 -2.75 C 43.039062 -2.375 43.828125 -2.1875 44.890625 -2.1875 L 45.21875 -2.1875 C 45.539062 -2.1875 45.785156 -2.117188 45.953125 -1.984375 C 46.117188 -1.859375 46.21875 -1.539062 46.25 -1.03125 C 46.25 -0.707031 46.164062 -0.425781 46 -0.1875 C 45.84375 0.0390625 45.597656 0.15625 45.265625 0.15625 C 42.929688 0.0507812 40.742188 0 38.703125 0 C 36.585938 0 34.347656 0.0507812 31.984375 0.15625 C 31.648438 0.15625 31.398438 0.0390625 31.234375 -0.1875 C 31.078125 -0.425781 31 -0.707031 31 -1.03125 C 31.03125 -1.582031 31.132812 -1.910156 31.3125 -2.015625 C 31.5 -2.128906 31.847656 -2.1875 32.359375 -2.1875 C 33.421875 -2.1875 34.207031 -2.375 34.71875 -2.75 C 35.226562 -3.132812 35.546875 -3.609375 35.671875 -4.171875 C 35.796875 -4.742188 35.878906 -5.484375 35.921875 -6.390625 L 35.921875 -28.09375 L 35.75 -28.09375 L 24.5 -0.265625 C 24.351562 0.0859375 23.988281 0.265625 23.40625 0.265625 Z M 23.40625 0.265625 "/></g></g></g></g></g></g></svg>